<mxfile host="app.diagrams.net" agent="Mozilla/5.0 (Windows NT 10.0; Win64; x64) AppleWebKit/537.36 (KHTML, like Gecko) Chrome/131.0.0.0 Safari/537.36" version="26.0.10">
  <diagram name="Page-1" id="4gBdwB-hEg8yXJyFR3Qj">
    <mxGraphModel dx="875" dy="1291" grid="1" gridSize="10" guides="1" tooltips="1" connect="1" arrows="1" fold="1" page="1" pageScale="1" pageWidth="1169" pageHeight="827" math="0" shadow="0">
      <root>
        <mxCell id="0" />
        <mxCell id="1" parent="0" />
        <mxCell id="lOrnOxYTejPzh3OfuBEP-1" value="" style="edgeStyle=orthogonalEdgeStyle;rounded=0;orthogonalLoop=1;jettySize=auto;html=1;" edge="1" parent="1" source="lOrnOxYTejPzh3OfuBEP-2" target="lOrnOxYTejPzh3OfuBEP-5">
          <mxGeometry relative="1" as="geometry" />
        </mxCell>
        <mxCell id="lOrnOxYTejPzh3OfuBEP-2" value="เริ่มต้น" style="rounded=1;whiteSpace=wrap;html=1;arcSize=50;" vertex="1" parent="1">
          <mxGeometry x="188" y="-11" width="88" height="42" as="geometry" />
        </mxCell>
        <mxCell id="lOrnOxYTejPzh3OfuBEP-3" value="Admin" style="text;html=1;align=center;verticalAlign=middle;resizable=0;points=[];autosize=1;strokeColor=none;fillColor=none;" vertex="1" parent="1">
          <mxGeometry x="24" y="-49" width="52" height="26" as="geometry" />
        </mxCell>
        <mxCell id="lOrnOxYTejPzh3OfuBEP-4" value="" style="edgeStyle=orthogonalEdgeStyle;rounded=0;orthogonalLoop=1;jettySize=auto;html=1;" edge="1" parent="1" source="lOrnOxYTejPzh3OfuBEP-5" target="lOrnOxYTejPzh3OfuBEP-7">
          <mxGeometry relative="1" as="geometry" />
        </mxCell>
        <mxCell id="lOrnOxYTejPzh3OfuBEP-5" value="username, password" style="rounded=0;whiteSpace=wrap;html=1;" vertex="1" parent="1">
          <mxGeometry x="182.5" y="70" width="99" height="43" as="geometry" />
        </mxCell>
        <mxCell id="lOrnOxYTejPzh3OfuBEP-6" value="" style="edgeStyle=orthogonalEdgeStyle;rounded=0;orthogonalLoop=1;jettySize=auto;html=1;entryX=1;entryY=0.5;entryDx=0;entryDy=0;" edge="1" parent="1" source="lOrnOxYTejPzh3OfuBEP-7" target="lOrnOxYTejPzh3OfuBEP-5">
          <mxGeometry relative="1" as="geometry">
            <mxPoint x="363" y="183" as="targetPoint" />
            <Array as="points">
              <mxPoint x="340" y="183" />
              <mxPoint x="340" y="91" />
            </Array>
          </mxGeometry>
        </mxCell>
        <mxCell id="lOrnOxYTejPzh3OfuBEP-7" value="success" style="rhombus;whiteSpace=wrap;html=1;rounded=0;" vertex="1" parent="1">
          <mxGeometry x="181" y="153" width="102" height="60" as="geometry" />
        </mxCell>
        <mxCell id="lOrnOxYTejPzh3OfuBEP-8" value="จัดการข้อมูลแพ็กเกจ" style="whiteSpace=wrap;html=1;rounded=0;" vertex="1" parent="1">
          <mxGeometry x="326" y="320" width="104" height="42" as="geometry" />
        </mxCell>
        <mxCell id="lOrnOxYTejPzh3OfuBEP-9" value="no" style="text;html=1;align=center;verticalAlign=middle;resizable=0;points=[];autosize=1;strokeColor=none;fillColor=none;" vertex="1" parent="1">
          <mxGeometry x="295" y="156" width="31" height="26" as="geometry" />
        </mxCell>
        <mxCell id="lOrnOxYTejPzh3OfuBEP-10" value="yes" style="text;html=1;align=center;verticalAlign=middle;resizable=0;points=[];autosize=1;strokeColor=none;fillColor=none;" vertex="1" parent="1">
          <mxGeometry x="228" y="227" width="37" height="26" as="geometry" />
        </mxCell>
        <mxCell id="lOrnOxYTejPzh3OfuBEP-11" value="" style="endArrow=none;html=1;rounded=0;" edge="1" parent="1">
          <mxGeometry width="50" height="50" relative="1" as="geometry">
            <mxPoint x="82" y="270" as="sourcePoint" />
            <mxPoint x="380" y="270" as="targetPoint" />
          </mxGeometry>
        </mxCell>
        <mxCell id="lOrnOxYTejPzh3OfuBEP-13" value="จัดการข้อมูลหมวดหมู่" style="whiteSpace=wrap;html=1;rounded=0;" vertex="1" parent="1">
          <mxGeometry x="32" y="320" width="104" height="42" as="geometry" />
        </mxCell>
        <mxCell id="lOrnOxYTejPzh3OfuBEP-14" value="จัดการข้อมูลบริการ" style="whiteSpace=wrap;html=1;rounded=0;" vertex="1" parent="1">
          <mxGeometry x="181" y="320" width="104" height="42" as="geometry" />
        </mxCell>
        <mxCell id="lOrnOxYTejPzh3OfuBEP-18" value="" style="endArrow=classic;html=1;rounded=0;entryX=0.5;entryY=0;entryDx=0;entryDy=0;" edge="1" parent="1" target="lOrnOxYTejPzh3OfuBEP-13">
          <mxGeometry width="50" height="50" relative="1" as="geometry">
            <mxPoint x="84" y="270" as="sourcePoint" />
            <mxPoint x="168" y="241" as="targetPoint" />
          </mxGeometry>
        </mxCell>
        <mxCell id="lOrnOxYTejPzh3OfuBEP-19" value="" style="endArrow=classic;html=1;rounded=0;entryX=0.5;entryY=0;entryDx=0;entryDy=0;exitX=0.5;exitY=1;exitDx=0;exitDy=0;" edge="1" parent="1" source="lOrnOxYTejPzh3OfuBEP-7" target="lOrnOxYTejPzh3OfuBEP-14">
          <mxGeometry width="50" height="50" relative="1" as="geometry">
            <mxPoint x="231.66000000000003" y="270" as="sourcePoint" />
            <mxPoint x="231.66000000000003" y="299" as="targetPoint" />
          </mxGeometry>
        </mxCell>
        <mxCell id="lOrnOxYTejPzh3OfuBEP-20" value="" style="endArrow=classic;html=1;rounded=0;entryX=0.5;entryY=0;entryDx=0;entryDy=0;" edge="1" parent="1" target="lOrnOxYTejPzh3OfuBEP-8">
          <mxGeometry width="50" height="50" relative="1" as="geometry">
            <mxPoint x="378" y="270" as="sourcePoint" />
            <mxPoint x="377.83" y="299" as="targetPoint" />
          </mxGeometry>
        </mxCell>
        <mxCell id="lOrnOxYTejPzh3OfuBEP-24" value="" style="edgeStyle=orthogonalEdgeStyle;rounded=0;orthogonalLoop=1;jettySize=auto;html=1;" edge="1" parent="1" source="lOrnOxYTejPzh3OfuBEP-25" target="lOrnOxYTejPzh3OfuBEP-35">
          <mxGeometry relative="1" as="geometry" />
        </mxCell>
        <mxCell id="lOrnOxYTejPzh3OfuBEP-25" value="" style="ellipse;whiteSpace=wrap;html=1;aspect=fixed;" vertex="1" parent="1">
          <mxGeometry x="216" y="390" width="34" height="34" as="geometry" />
        </mxCell>
        <mxCell id="lOrnOxYTejPzh3OfuBEP-34" value="" style="edgeStyle=orthogonalEdgeStyle;rounded=0;orthogonalLoop=1;jettySize=auto;html=1;" edge="1" parent="1" source="lOrnOxYTejPzh3OfuBEP-35" target="lOrnOxYTejPzh3OfuBEP-36">
          <mxGeometry relative="1" as="geometry" />
        </mxCell>
        <mxCell id="lOrnOxYTejPzh3OfuBEP-35" value="แสดงข้อมูล" style="whiteSpace=wrap;html=1;" vertex="1" parent="1">
          <mxGeometry x="186.5" y="468" width="93" height="40" as="geometry" />
        </mxCell>
        <mxCell id="lOrnOxYTejPzh3OfuBEP-36" value="จบ" style="rounded=1;whiteSpace=wrap;html=1;arcSize=50;" vertex="1" parent="1">
          <mxGeometry x="194.5" y="568" width="77" height="39" as="geometry" />
        </mxCell>
        <mxCell id="lOrnOxYTejPzh3OfuBEP-39" value="" style="endArrow=classic;html=1;rounded=0;exitX=0.5;exitY=1;exitDx=0;exitDy=0;entryX=0;entryY=0.5;entryDx=0;entryDy=0;" edge="1" parent="1" source="lOrnOxYTejPzh3OfuBEP-13" target="lOrnOxYTejPzh3OfuBEP-25">
          <mxGeometry width="50" height="50" relative="1" as="geometry">
            <mxPoint x="250" y="470" as="sourcePoint" />
            <mxPoint x="300" y="420" as="targetPoint" />
            <Array as="points">
              <mxPoint x="84" y="407" />
            </Array>
          </mxGeometry>
        </mxCell>
        <mxCell id="lOrnOxYTejPzh3OfuBEP-40" value="" style="endArrow=classic;html=1;rounded=0;exitX=0.5;exitY=1;exitDx=0;exitDy=0;entryX=0.5;entryY=0;entryDx=0;entryDy=0;" edge="1" parent="1" source="lOrnOxYTejPzh3OfuBEP-14" target="lOrnOxYTejPzh3OfuBEP-25">
          <mxGeometry width="50" height="50" relative="1" as="geometry">
            <mxPoint x="180" y="450" as="sourcePoint" />
            <mxPoint x="260" y="380" as="targetPoint" />
          </mxGeometry>
        </mxCell>
        <mxCell id="lOrnOxYTejPzh3OfuBEP-41" value="" style="endArrow=classic;html=1;rounded=0;exitX=0.5;exitY=1;exitDx=0;exitDy=0;entryX=1;entryY=0.5;entryDx=0;entryDy=0;" edge="1" parent="1" source="lOrnOxYTejPzh3OfuBEP-8" target="lOrnOxYTejPzh3OfuBEP-25">
          <mxGeometry width="50" height="50" relative="1" as="geometry">
            <mxPoint x="240" y="420" as="sourcePoint" />
            <mxPoint x="290" y="370" as="targetPoint" />
            <Array as="points">
              <mxPoint x="378" y="407" />
            </Array>
          </mxGeometry>
        </mxCell>
      </root>
    </mxGraphModel>
  </diagram>
</mxfile>
